<?xml version="1.0" encoding="utf-8"?>
<!-- Generator: Adobe Illustrator 23.0.2, SVG Export Plug-In . SVG Version: 6.00 Build 0)  -->
<svg version="1.1" id="Layer_1" xmlns="http://www.w3.org/2000/svg" xmlns:xlink="http://www.w3.org/1999/xlink" x="0px" y="0px"
	 width="1044px" height="360px" viewBox="0 0 1044 360" style="enable-background:new 0 0 1044 360;" xml:space="preserve">
<style type="text/css">
	.st0{fill:none;stroke:#46474F;stroke-width:18;stroke-linecap:round;stroke-linejoin:round;stroke-miterlimit:10;}
	.st1{fill:#A4ABBC;}
	.st2{fill:#46474F;}
	.st3{fill:#5767FF;}
	.st4{fill:none;stroke:#FFFFFF;stroke-width:20;stroke-linejoin:round;stroke-miterlimit:10;}
	.st5{fill:none;stroke:#FFFFFF;stroke-width:20;stroke-linecap:round;stroke-linejoin:round;stroke-miterlimit:10;}
</style>
<path class="st0" d="M830.8,184.5"/>
<g>
	<path class="st1" d="M501.3,280.5c5.1,0,9.1,1.1,12,3.3c3,2.2,4.4,5.3,4.4,9.2c0,1.5-0.3,2.8-0.8,4s-1.2,2.2-2.1,3
		c-0.8,0.8-1.8,1.5-2.8,2.1s-2.1,1-3.2,1.2c1.4,0.3,2.8,0.7,4,1.3c1.3,0.6,2.4,1.4,3.3,2.3c0.9,1,1.7,2.1,2.2,3.5s0.8,2.9,0.8,4.6
		c0,2-0.4,3.8-1.3,5.5c-0.9,1.7-2.1,3.1-3.7,4.3c-1.6,1.2-3.6,2.2-5.8,2.8c-2.3,0.7-4.8,1-7.6,1H484v-48L501.3,280.5L501.3,280.5z
		 M494.6,299.6h5c2.3,0,4.1-0.5,5.5-1.5s2-2.5,2-4.5c0-1.8-0.6-3.1-1.9-4c-1.3-0.9-3.1-1.3-5.4-1.3h-5.2L494.6,299.6L494.6,299.6z
		 M494.6,320.5h5c2.6,0,4.8-0.5,6.4-1.5c1.7-1,2.5-2.7,2.5-5.2c0-2.3-0.9-3.9-2.7-4.9s-4-1.5-6.6-1.5h-4.7L494.6,320.5L494.6,320.5z
		"/>
	<path class="st1" d="M542.4,280.5l10.2,18.7l10.3-18.7h11.3l-16.8,28.2v19.8H547v-19.8l-16.5-28.2H542.4z"/>
	<path class="st1" d="M615.7,280.5h13.2l6.9,21.9c0.3,1,0.6,2,1,3.1c0.3,1.1,0.7,2.3,1,3.4s0.6,2.2,0.8,3.3c0.3,1.1,0.5,2.1,0.6,3
		h0.3c0.2-0.8,0.4-1.8,0.6-2.9c0.3-1.1,0.5-2.2,0.8-3.4c0.3-1.2,0.6-2.3,0.9-3.5c0.3-1.1,0.6-2.1,0.8-3.1l6.7-21.9h13.2l3.6,48h-9.8
		c-0.3-5.3-0.6-10.5-0.9-15.9c-0.3-5.3-0.5-10.6-0.6-16l-0.1-6.3h-0.2c-0.7,2.8-1.4,5.8-2.2,8.7c-0.8,3.1-1.5,5.8-2.3,8l-6.8,21.4
		h-8l-7-21.4c-0.9-2.8-1.7-5.7-2.5-8.6c-0.8-3.1-1.4-5.8-1.8-8h-0.2c0,1.8,0,3.8-0.1,5.8s-0.1,4-0.2,6c-0.1,2-0.2,3.9-0.2,5.9
		c-0.1,1.9-0.2,3.7-0.3,5.3l-0.9,15.3h-9.6L615.7,280.5z"/>
	<path class="st1" d="M694.2,280.5v48h-10.4v-48H694.2z"/>
	<path class="st1" d="M712.4,280.5h9.5l16.5,25.3c1.1,1.7,2.2,3.4,3.1,5.1c0.9,1.7,1.6,3,2,3.9h0.2c-0.3-3.3-0.5-6.6-0.5-9.8
		c0-3.3,0-6.6,0-9.9v-14.4h9.6v48h-9.5l-15.4-23.3c-0.7-1-1.3-2.1-2-3.2c-0.6-1.1-1.2-2.2-1.8-3.2s-1.1-2-1.5-2.8s-0.8-1.5-1-2.1
		h-0.2c0.3,3.5,0.4,6.9,0.4,10.1s0,6.6,0,9.8v14.5h-9.7v-48H712.4z"/>
	<path class="st1" d="M771.1,280.5h31.2v8h-20.8v10.9h18.8v8h-18.8v12.9h21.1v8h-31.5V280.5z"/>
	<path class="st1" d="M818.1,280.5h18.2c2.7,0,5.1,0.4,7.2,1.2c2.1,0.8,3.8,1.9,5.2,3.2c1.4,1.4,2.4,2.9,3.1,4.8
		c0.7,1.8,1,3.8,1,5.9c0,1.9-0.3,3.7-0.9,5.2c-0.6,1.5-1.3,2.8-2.2,3.9s-1.9,2-3,2.8c-1.1,0.7-2.2,1.3-3.2,1.8l11.7,19.5h-11.9
		l-9.2-17.7h-5.6v17.7h-10.3L818.1,280.5L818.1,280.5z M828.4,302.7h4.1c2.8,0,5-0.6,6.8-1.7s2.6-3,2.6-5.6c0-2.3-0.7-4.1-2.1-5.3
		c-1.4-1.3-3.5-1.9-6.2-1.9h-5.3L828.4,302.7L828.4,302.7z"/>
	<path class="st1" d="M884.8,279.6c3.1,0,5.9,0.3,8.2,0.9s4.5,1.4,6.4,2.4l-2.4,7.7c-2.1-1-4.1-1.8-6.1-2.3
		c-1.9-0.5-3.8-0.8-5.7-0.8c-2.5,0-4.4,0.5-5.7,1.5c-1.4,1-2,2.3-2,3.9c0,1.7,0.6,3,1.8,3.8c1.2,0.9,3.1,1.7,5.7,2.5l4.6,1.5
		c3.8,1.3,6.8,3.1,8.9,5.4c2.2,2.4,3.3,5.2,3.3,8.6c0,2-0.4,4-1.2,5.8c-0.8,1.8-1.9,3.3-3.5,4.7c-1.5,1.3-3.5,2.4-5.8,3.1
		c-2.3,0.8-5,1.1-8,1.1c-5.8,0-11-1.2-15.8-3.5l2.4-7.7c2.2,1.1,4.3,1.9,6.4,2.5s4.3,0.9,6.6,0.9c2.7,0,4.8-0.5,6.1-1.5
		c1.4-1,2.1-2.4,2.1-4.2c0-0.6-0.1-1.2-0.3-1.8c-0.2-0.6-0.7-1.2-1.3-1.7c-0.6-0.5-1.4-1.1-2.5-1.6c-1-0.5-2.4-1.1-4.1-1.6l-4.1-1.4
		c-1.8-0.6-3.4-1.3-4.9-2.1c-1.5-0.8-2.7-1.8-3.8-2.8c-1-1.1-1.9-2.3-2.5-3.8s-0.9-3.2-0.9-5.1c0-2.1,0.4-4,1.1-5.8
		c0.8-1.8,1.9-3.3,3.4-4.6c1.5-1.3,3.4-2.3,5.6-3C879.4,280,881.9,279.6,884.8,279.6z"/>
	<path class="st1" d="M950.4,280.5v8.2h-13.6v39.7h-10.4v-39.7h-13.2v-8.2H950.4z"/>
	<path class="st1" d="M973.4,280.5h10.8l17.8,48h-11l-3.8-11h-17.1l-3.8,11h-10.9L973.4,280.5z M972.5,309.7h12.2l-2.2-6.4
		c-0.7-2-1.4-4-2-6s-1.2-4.1-1.8-6.1h-0.2c-0.6,1.9-1.2,3.9-1.8,5.9c-0.7,2-1.4,4.1-2.1,6.2L972.5,309.7z"/>
	<path class="st1" d="M1044,280.5v8.2h-13.6v39.7h-10.3v-39.7h-13.2v-8.2H1044z"/>
</g>
<path class="st2" d="M524.5,126c8.8,0,16.6,1.5,23.2,4.5c6.5,2.9,11.7,7.1,15.6,12.7c1,1.6,1.6,3.2,1.6,4.9c0,0.5-0.1,1.1-0.2,1.8
	c-0.5,2.5-1.8,4.4-3.9,5.8c-1.9,1.3-4.2,1.8-6.6,1.4c-2.3-0.5-4.2-1.8-5.7-3.9c-2.1-3.1-5.1-5.5-9.2-7c-4-1.6-9-2.3-14.8-2.3
	c-2.5,0-4.9,0.3-7.4,1c-2.3,0.5-4.5,1.4-6.6,2.5c-3.1,1.6-4.9,3.4-5.5,5.5c-0.5,2.1-0.8,3.6-0.8,4.7c0.3,2.2,1.2,4.2,2.7,5.8
	c1.4,1.7,3.4,2.9,5.8,3.7c6.4,1.9,15.9,4.9,28.5,8.8c5.8,1.8,10.7,5,14.6,9.6c3.8,4.6,5.9,9.7,6.4,15.6c0.6,5.7-0.4,11-3.1,16
	c-2.7,4.9-6.7,8.8-11.9,11.5c-3.5,1.8-7.1,3.3-10.9,4.3c-3.9,0.9-7.9,1.4-11.9,1.4c-8.8,0-16.6-1.5-23.4-4.5
	c-6.6-2.9-11.8-7.1-15.6-12.9c-1-1.6-1.6-3.2-1.6-4.9c0-0.5,0.1-1.1,0.2-1.8c0.4-2.5,1.6-4.4,3.7-5.8c2.1-1.3,4.4-1.8,6.8-1.4
	c2.3,0.5,4.2,1.8,5.7,3.9c2.1,3.1,5.1,5.5,9.2,7c4,1.6,9,2.3,14.8,2.3c2.6,0,5.1-0.3,7.6-1c2.3-0.5,4.6-1.4,6.8-2.7
	c2.9-1.6,4.5-3.3,5.1-5.3c0.5-2.1,0.7-3.6,0.6-4.7c-0.1-1.7-0.8-3.4-2.1-5.3c-1.3-1.9-3.4-3.4-6.4-4.3c-6.2-1.9-15.7-4.9-28.3-8.8
	c-6-1.8-10.9-5-14.8-9.6c-3.8-4.5-5.9-9.7-6.4-15.6c-0.5-5.8,0.7-11.2,3.7-16.2c2.9-4.9,6.9-8.8,12.3-11.5c3.4-1.7,6.9-3,10.7-3.9
	C516.8,126.5,520.6,126,524.5,126z"/>
<path class="st2" d="M636.6,126.2c5.2,0,10.2,0.7,15,2.1c4.8,1.4,9.3,3.4,13.4,5.8c7.7,4.8,13.8,11.2,18.5,19.3c4.7,8.1,7,17,7,26.7
	c0,5.1-0.7,10-2.1,14.8c-1.4,4.8-3.4,9.3-5.8,13.5c-4.8,7.7-11.2,13.8-19.3,18.5c-8.1,4.7-17,7-26.7,7c-9.6,0-18.5-2.3-26.5-7
	c-8.1-4.7-14.5-10.8-19.3-18.5c-2.5-4.2-4.4-8.6-5.8-13.5c-1.4-4.8-2.1-9.7-2.1-14.8c0-9.7,2.3-18.6,7-26.7
	c4.7-8.1,10.8-14.5,18.5-19.3c4.2-2.5,8.6-4.4,13.4-5.8C626.6,126.9,631.5,126.2,636.6,126.2z M672.7,180.2c0-10-3.5-18.5-10.5-25.5
	s-15.5-10.5-25.5-10.5c-9.9,0-18.3,3.5-25.3,10.5s-10.5,15.5-10.5,25.5c0,9.9,3.5,18.3,10.5,25.3s15.5,10.5,25.3,10.5
	c10,0,18.5-3.5,25.5-10.5S672.7,190.1,672.7,180.2z"/>
<path class="st2" d="M780.6,225c0-11.7,0-29.2,0-52.6c0-7.8-2.7-14.5-8-20.1c-5.3-5.5-11.7-8.2-19.1-8.2c-7.3,0-13.6,2.7-18.9,8.2
	c-5.3,5.6-8,12.3-8,20.1c0,11.7,0,29.2,0,52.6c0,2.5-0.8,4.6-2.5,6.4c-1.8,1.7-4,2.5-6.4,2.5c-2.5,0-4.6-0.8-6.4-2.5
	c-1.7-1.8-2.5-4-2.5-6.4c0-11.7,0-29.2,0-52.6c0-8.3,1.9-15.9,5.8-22.8c3.9-6.9,9-12.4,15.4-16.6c3.4-2.1,7.1-3.8,11.1-5.1
	c4-1.2,8.2-1.8,12.5-1.8c8.1,0,15.5,2,22.2,6c6.8,3.9,12.1,9.2,16,15.8c2.2,3.5,3.9,7.3,5.1,11.3c1.2,4.2,1.8,8.5,1.8,13.1
	c0,11.7,0,29.2,0,52.6c0,2.5-0.9,4.6-2.7,6.4c-1.7,1.7-3.8,2.5-6.2,2.5c-2.5,0-4.6-0.8-6.4-2.5C781.5,229.6,780.6,227.5,780.6,225z"
	/>
<path class="st2" d="M870.3,234c-9.6,0-18.5-2.3-26.5-7c-8.1-4.7-14.5-10.8-19.3-18.5c-2.5-4.2-4.4-8.6-5.8-13.5
	c-1.4-4.8-2.1-9.7-2.1-14.8c0-5.2,0.7-10.2,2.1-15c1.4-4.8,3.4-9.3,5.8-13.5c4.8-7.7,11.2-13.8,19.3-18.5c8.1-4.7,16.9-7,26.5-7
	c6.9,0,13.4,1.2,19.7,3.7c6.1,2.5,11.6,5.8,16.4,10.1c0-1,0-2.7,0-4.9c0-2.5,0.8-4.6,2.5-6.4c1.8-1.7,4-2.5,6.4-2.5
	c2.5,0,4.6,0.8,6.4,2.5c1.7,1.8,2.5,4,2.5,6.4c0,20,0,50,0,89.9c0,2.5-0.8,4.6-2.5,6.4c-1.8,1.7-4,2.5-6.4,2.5
	c-2.5,0-4.6-0.8-6.4-2.5c-1.7-1.8-2.5-4-2.5-6.4c0-1,0-2.7,0-4.9c-4.8,4.3-10.3,7.7-16.4,10.1C883.7,232.8,877.2,234,870.3,234z
	 M834.4,180.2c0,9.9,3.5,18.3,10.5,25.3s15.5,10.5,25.3,10.5c10,0,18.5-3.5,25.5-10.5s10.5-15.5,10.5-25.3c0-10-3.5-18.5-10.5-25.5
	s-15.5-10.5-25.5-10.5c-9.9,0-18.3,3.5-25.3,10.5S834.4,170.2,834.4,180.2z"/>
<path class="st2" d="M954.2,225c0-11.7,0-29.2,0-52.6c0-8.3,1.9-15.9,5.8-22.8c3.9-6.9,9-12.4,15.4-16.6c3.4-2.1,7.1-3.8,11.1-5.1
	c4-1.2,8.2-1.8,12.5-1.8c8.1,0,15.5,2,22.2,6c6.8,3.9,12.1,9.2,16,15.8c2.2,3.5,3.9,7.3,5.1,11.3c1.2,4.2,1.8,8.5,1.8,13.1
	c0,2.5-0.9,4.6-2.7,6.2c-1.7,1.8-3.8,2.7-6.2,2.7c-2.5,0-4.6-0.9-6.4-2.7c-1.7-1.7-2.5-3.8-2.5-6.2c0-7.8-2.7-14.5-8-20.1
	c-5.3-5.5-11.7-8.2-19.1-8.2c-7.3,0-13.6,2.7-18.9,8.2c-5.3,5.6-8,12.3-8,20.1c0,11.7,0,29.2,0,52.6c0,2.5-0.8,4.6-2.5,6.4
	c-1.8,1.7-4,2.5-6.4,2.5c-2.5,0-4.6-0.8-6.4-2.5C955,229.6,954.2,227.5,954.2,225z"/>
<path class="st3" d="M324,360H36c-19.8,0-36-16.2-36-36V36C0,16.2,16.2,0,36,0h288c19.8,0,36,16.2,36,36v288
	C360,343.8,343.8,360,324,360z"/>
<circle class="st4" cx="180" cy="180" r="10"/>
<path class="st5" d="M255,180c0,41.4-33.6,75-75,75s-75-33.6-75-75s33.6-75,75-75c20.7,0,39.5,8.4,53,22"/>
<path class="st5" d="M305,180c0,69-56,125-125,125S55,249,55,180S111,55,180,55c34.5,0,65.8,14,88.4,36.6"/>
<line class="st5" x1="180" y1="180" x2="296" y2="64"/>
</svg>
