<?xml version="1.0" encoding="utf-8"?>
<!-- Generator: Adobe Illustrator 23.0.2, SVG Export Plug-In . SVG Version: 6.00 Build 0)  -->
<svg version="1.1" id="Layer_1" xmlns="http://www.w3.org/2000/svg" xmlns:xlink="http://www.w3.org/1999/xlink" x="0px" y="0px"
	 width="360px" height="360px" viewBox="0 0 360 360" style="enable-background:new 0 0 360 360;" xml:space="preserve">
<style type="text/css">
	.st0{fill:#5767FF;}
	.st1{fill:#FFFFFF;}
</style>
<path class="st0" d="M324,360H36c-19.8,0-36-16.2-36-36V36C0,16.2,16.2,0,36,0h288c19.8,0,36,16.2,36,36v288
	C360,343.8,343.8,360,324,360z"/>
<path class="st1" d="M305,170c-5.5,0-10,4.5-10,10c0,63.4-51.6,115-115,115S65,243.4,65,180S116.6,65,180,65
	c27.4,0,53.3,9.5,73.9,26.9l-21.4,21.4C217.7,101.4,199.4,95,180,95c-46.9,0-85,38.1-85,85s38.1,85,85,85s85-38.1,85-85
	c0-5.5-4.5-10-10-10s-10,4.5-10,10c0,35.8-29.2,65-65,65c-35.8,0-65-29.2-65-65c0-35.8,29.2-65,65-65c14,0,27.3,4.4,38.3,12.5
	l-33.2,33.2c-1.6-0.4-3.4-0.7-5.2-0.7c-11,0-20,9-20,20c0,11,9,20,20,20c11,0,20-9,20-20c0-1.8-0.3-3.5-0.7-5.2L303.1,71.1
	c3.9-3.9,3.9-10.2,0-14.1c-3.9-3.9-10.2-3.9-14.1,0l-20.8,20.8C243.7,56.5,212.7,45,180,45c-74.4,0-135,60.6-135,135
	s60.6,135,135,135s135-60.6,135-135C315,174.5,310.5,170,305,170z"/>
</svg>
